<svg xmlns="http://www.w3.org/2000/svg" version="1.1" xmlns:xlink="http://www.w3.org/1999/xlink" xmlns:svgjs="http://svgjs.dev/svgjs" viewBox="0 0 800 800"><defs><linearGradient x1="50%" y1="0%" x2="50%" y2="100%" id="ffflurry-grad" gradientTransform="rotate(270)"><stop stop-color="hsl(193, 82%, 31%)" stop-opacity="1" offset="0%"></stop><stop stop-color="rgb(165 243 252)" stop-opacity="1" offset="45%"></stop><stop stop-color="rgb(22 78 99)" stop-opacity="1" offset="100%"></stop></linearGradient></defs><rect width="100%" height="100%" fill="hsl(193, 82%, 31%)"></rect><g fill="url(#ffflurry-grad)"><rect width="506" height="1" x="-14" y="25.5" rx="0.5" transform="rotate(25, 239, 26)" opacity="0.27"></rect><rect width="366" height="1" x="454" y="719.5" rx="0.5" transform="rotate(25, 637, 720)" opacity="0.30"></rect><rect width="598" height="1" x="365" y="184.5" rx="0.5" transform="rotate(25, 664, 185)" opacity="0.97"></rect><rect width="484" height="1" x="-110" y="22.5" rx="0.5" transform="rotate(25, 132, 23)" opacity="0.85"></rect><rect width="367" height="1" x="-154.5" y="634.5" rx="0.5" transform="rotate(25, 29, 635)" opacity="0.18"></rect><rect width="942" height="1" x="21" y="447.5" rx="0.5" transform="rotate(25, 492, 448)" opacity="0.66"></rect><rect width="306" height="1" x="427" y="762.5" rx="0.5" transform="rotate(25, 580, 763)" opacity="0.61"></rect><rect width="37" height="1" x="147.5" y="122.5" rx="0.5" transform="rotate(25, 166, 123)" opacity="0.25"></rect><rect width="257" height="1" x="253.5" y="404.5" rx="0.5" transform="rotate(25, 382, 405)" opacity="0.62"></rect><rect width="628" height="1" x="-187" y="293.5" rx="0.5" transform="rotate(25, 127, 294)" opacity="0.29"></rect><rect width="44" height="1" x="258" y="597.5" rx="0.5" transform="rotate(25, 280, 598)" opacity="0.48"></rect><rect width="700" height="1" x="187" y="114.5" rx="0.5" transform="rotate(25, 537, 115)" opacity="0.92"></rect><rect width="645" height="1" x="203.5" y="649.5" rx="0.5" transform="rotate(25, 526, 650)" opacity="0.84"></rect><rect width="438" height="1" x="67" y="70.5" rx="0.5" transform="rotate(25, 286, 71)" opacity="0.84"></rect><rect width="472" height="1" x="149" y="199.5" rx="0.5" transform="rotate(25, 385, 200)" opacity="0.63"></rect><rect width="638" height="1" x="-130" y="241.5" rx="0.5" transform="rotate(25, 189, 242)" opacity="0.09"></rect><rect width="573" height="1" x="-49.5" y="736.5" rx="0.5" transform="rotate(25, 237, 737)" opacity="0.94"></rect><rect width="418" height="1" x="-159" y="319.5" rx="0.5" transform="rotate(25, 50, 320)" opacity="0.39"></rect><rect width="56" height="1" x="583" y="391.5" rx="0.5" transform="rotate(25, 611, 392)" opacity="0.21"></rect><rect width="565" height="1" x="352.5" y="632.5" rx="0.5" transform="rotate(25, 635, 633)" opacity="0.65"></rect><rect width="149" height="1" x="679.5" y="330.5" rx="0.5" transform="rotate(25, 754, 331)" opacity="0.72"></rect><rect width="375" height="1" x="-119.5" y="47.5" rx="0.5" transform="rotate(25, 68, 48)" opacity="0.26"></rect><rect width="224" height="1" x="374" y="716.5" rx="0.5" transform="rotate(25, 486, 717)" opacity="0.26"></rect><rect width="432" height="1" x="470" y="301.5" rx="0.5" transform="rotate(25, 686, 302)" opacity="0.20"></rect><rect width="477" height="1" x="520.5" y="29.5" rx="0.5" transform="rotate(25, 759, 30)" opacity="0.48"></rect><rect width="377" height="1" x="-123.5" y="693.5" rx="0.5" transform="rotate(25, 65, 694)" opacity="0.42"></rect><rect width="267" height="1" x="130.5" y="301.5" rx="0.5" transform="rotate(25, 264, 302)" opacity="0.65"></rect><rect width="485" height="1" x="40.5" y="384.5" rx="0.5" transform="rotate(25, 283, 385)" opacity="0.60"></rect><rect width="758" height="1" x="63" y="348.5" rx="0.5" transform="rotate(25, 442, 349)" opacity="0.46"></rect><rect width="256" height="1" x="593" y="146.5" rx="0.5" transform="rotate(25, 721, 147)" opacity="0.07"></rect><rect width="416" height="1" x="479" y="51.5" rx="0.5" transform="rotate(25, 687, 52)" opacity="0.57"></rect><rect width="222" height="1" x="304" y="259.5" rx="0.5" transform="rotate(25, 415, 260)" opacity="0.27"></rect><rect width="176" height="1" x="690" y="592.5" rx="0.5" transform="rotate(25, 778, 593)" opacity="0.13"></rect><rect width="678" height="1" x="15" y="301.5" rx="0.5" transform="rotate(25, 354, 302)" opacity="0.81"></rect><rect width="630" height="1" x="439" y="258.5" rx="0.5" transform="rotate(25, 754, 259)" opacity="0.85"></rect><rect width="473" height="1" x="-143.5" y="596.5" rx="0.5" transform="rotate(25, 93, 597)" opacity="0.51"></rect><rect width="308" height="1" x="353" y="335.5" rx="0.5" transform="rotate(25, 507, 336)" opacity="0.39"></rect><rect width="209" height="1" x="402.5" y="27.5" rx="0.5" transform="rotate(25, 507, 28)" opacity="0.12"></rect><rect width="381" height="1" x="-135.5" y="485.5" rx="0.5" transform="rotate(25, 55, 486)" opacity="0.54"></rect><rect width="85" height="1" x="192.5" y="513.5" rx="0.5" transform="rotate(25, 235, 514)" opacity="0.19"></rect><rect width="59" height="1" x="722.5" y="516.5" rx="0.5" transform="rotate(25, 752, 517)" opacity="0.94"></rect><rect width="463" height="1" x="-202.5" y="130.5" rx="0.5" transform="rotate(25, 29, 131)" opacity="0.61"></rect><rect width="57" height="1" x="627.5" y="542.5" rx="0.5" transform="rotate(25, 656, 543)" opacity="0.95"></rect><rect width="648" height="1" x="-285" y="401.5" rx="0.5" transform="rotate(25, 39, 402)" opacity="0.61"></rect><rect width="631" height="1" x="273.5" y="477.5" rx="0.5" transform="rotate(25, 589, 478)" opacity="0.30"></rect><rect width="447" height="1" x="3.5" y="99.5" rx="0.5" transform="rotate(25, 227, 100)" opacity="0.47"></rect><rect width="506" height="1" x="445" y="725.5" rx="0.5" transform="rotate(25, 698, 726)" opacity="0.09"></rect><rect width="320" height="1" x="-5" y="486.5" rx="0.5" transform="rotate(25, 155, 487)" opacity="0.78"></rect><rect width="131" height="1" x="648.5" y="606.5" rx="0.5" transform="rotate(25, 714, 607)" opacity="0.86"></rect><rect width="361" height="1" x="-156.5" y="36.5" rx="0.5" transform="rotate(25, 24, 37)" opacity="1.00"></rect><rect width="121" height="1" x="230.5" y="129.5" rx="0.5" transform="rotate(25, 291, 130)" opacity="0.61"></rect><rect width="66" height="1" x="423" y="24.5" rx="0.5" transform="rotate(25, 456, 25)" opacity="0.88"></rect><rect width="63" height="1" x="168.5" y="332.5" rx="0.5" transform="rotate(25, 200, 333)" opacity="0.62"></rect><rect width="611" height="1" x="158.5" y="85.5" rx="0.5" transform="rotate(25, 464, 86)" opacity="0.13"></rect><rect width="644" height="1" x="-170" y="560.5" rx="0.5" transform="rotate(25, 152, 561)" opacity="0.27"></rect><rect width="277" height="1" x="-19.5" y="408.5" rx="0.5" transform="rotate(25, 119, 409)" opacity="0.67"></rect><rect width="545" height="1" x="-75.5" y="409.5" rx="0.5" transform="rotate(25, 197, 410)" opacity="0.40"></rect><rect width="337" height="1" x="492.5" y="349.5" rx="0.5" transform="rotate(25, 661, 350)" opacity="0.60"></rect><rect width="1117" height="1" x="-22.5" y="555.5" rx="0.5" transform="rotate(25, 536, 556)" opacity="0.33"></rect><rect width="410" height="1" x="140" y="662.5" rx="0.5" transform="rotate(25, 345, 663)" opacity="0.11"></rect><rect width="611" height="1" x="-272.5" y="553.5" rx="0.5" transform="rotate(25, 33, 554)" opacity="0.46"></rect><rect width="212" height="1" x="567" y="396.5" rx="0.5" transform="rotate(25, 673, 397)" opacity="0.64"></rect><rect width="541" height="1" x="128.5" y="23.5" rx="0.5" transform="rotate(25, 399, 24)" opacity="0.92"></rect><rect width="629" height="1" x="16.5" y="174.5" rx="0.5" transform="rotate(25, 331, 175)" opacity="0.89"></rect><rect width="1031" height="1" x="-80.5" y="621.5" rx="0.5" transform="rotate(25, 435, 622)" opacity="0.42"></rect><rect width="354" height="1" x="266" y="154.5" rx="0.5" transform="rotate(25, 443, 155)" opacity="0.35"></rect><rect width="631" height="1" x="300.5" y="33.5" rx="0.5" transform="rotate(25, 616, 34)" opacity="0.82"></rect><rect width="155" height="1" x="599.5" y="462.5" rx="0.5" transform="rotate(25, 677, 463)" opacity="0.92"></rect><rect width="583" height="1" x="302.5" y="190.5" rx="0.5" transform="rotate(25, 594, 191)" opacity="0.30"></rect><rect width="266" height="1" x="420" y="47.5" rx="0.5" transform="rotate(25, 553, 48)" opacity="0.82"></rect><rect width="451" height="1" x="180.5" y="72.5" rx="0.5" transform="rotate(25, 406, 73)" opacity="0.67"></rect><rect width="317" height="1" x="242.5" y="521.5" rx="0.5" transform="rotate(25, 401, 522)" opacity="0.76"></rect><rect width="376" height="1" x="315" y="174.5" rx="0.5" transform="rotate(25, 503, 175)" opacity="0.21"></rect><rect width="263" height="1" x="287.5" y="750.5" rx="0.5" transform="rotate(25, 419, 751)" opacity="0.24"></rect><rect width="132" height="1" x="709" y="417.5" rx="0.5" transform="rotate(25, 775, 418)" opacity="0.70"></rect><rect width="442" height="1" x="335" y="384.5" rx="0.5" transform="rotate(25, 556, 385)" opacity="0.53"></rect><rect width="442" height="1" x="106" y="758.5" rx="0.5" transform="rotate(25, 327, 759)" opacity="0.34"></rect><rect width="371" height="1" x="144.5" y="25.5" rx="0.5" transform="rotate(25, 330, 26)" opacity="0.29"></rect><rect width="399" height="1" x="-63.5" y="761.5" rx="0.5" transform="rotate(25, 136, 762)" opacity="0.76"></rect><rect width="69" height="1" x="11.5" y="227.5" rx="0.5" transform="rotate(25, 46, 228)" opacity="0.25"></rect><rect width="411" height="1" x="141.5" y="85.5" rx="0.5" transform="rotate(25, 347, 86)" opacity="0.25"></rect><rect width="177" height="1" x="298.5" y="124.5" rx="0.5" transform="rotate(25, 387, 125)" opacity="0.89"></rect><rect width="49" height="1" x="701.5" y="414.5" rx="0.5" transform="rotate(25, 726, 415)" opacity="0.11"></rect><rect width="141" height="1" x="604.5" y="242.5" rx="0.5" transform="rotate(25, 675, 243)" opacity="0.32"></rect><rect width="151" height="1" x="124.5" y="637.5" rx="0.5" transform="rotate(25, 200, 638)" opacity="0.34"></rect><rect width="510" height="1" x="256" y="774.5" rx="0.5" transform="rotate(25, 511, 775)" opacity="0.52"></rect><rect width="126" height="1" x="688" y="669.5" rx="0.5" transform="rotate(25, 751, 670)" opacity="0.11"></rect><rect width="384" height="1" x="370" y="298.5" rx="0.5" transform="rotate(25, 562, 299)" opacity="0.77"></rect><rect width="705" height="1" x="-316.5" y="757.5" rx="0.5" transform="rotate(25, 36, 758)" opacity="0.85"></rect><rect width="190" height="1" x="451" y="230.5" rx="0.5" transform="rotate(25, 546, 231)" opacity="0.69"></rect><rect width="742" height="1" x="-64" y="475.5" rx="0.5" transform="rotate(25, 307, 476)" opacity="0.32"></rect><rect width="469" height="1" x="385.5" y="290.5" rx="0.5" transform="rotate(25, 620, 291)" opacity="0.35"></rect><rect width="289" height="1" x="31.5" y="57.5" rx="0.5" transform="rotate(25, 176, 58)" opacity="0.94"></rect><rect width="302" height="1" x="327" y="252.5" rx="0.5" transform="rotate(25, 478, 253)" opacity="0.77"></rect><rect width="183" height="1" x="-2.5" y="151.5" rx="0.5" transform="rotate(25, 89, 152)" opacity="0.49"></rect><rect width="529" height="1" x="-61.5" y="171.5" rx="0.5" transform="rotate(25, 203, 172)" opacity="0.33"></rect><rect width="588" height="1" x="470" y="98.5" rx="0.5" transform="rotate(25, 764, 99)" opacity="0.89"></rect><rect width="220" height="1" x="472" y="691.5" rx="0.5" transform="rotate(25, 582, 692)" opacity="0.24"></rect><rect width="681" height="1" x="287.5" y="113.5" rx="0.5" transform="rotate(25, 628, 114)" opacity="0.75"></rect><rect width="96" height="1" x="619" y="779.5" rx="0.5" transform="rotate(25, 667, 780)" opacity="0.57"></rect><rect width="282" height="1" x="149" y="241.5" rx="0.5" transform="rotate(25, 290, 242)" opacity="0.63"></rect><rect width="542" height="1" x="-15" y="180.5" rx="0.5" transform="rotate(25, 256, 181)" opacity="0.36"></rect><rect width="189" height="1" x="47.5" y="677.5" rx="0.5" transform="rotate(25, 142, 678)" opacity="0.33"></rect><rect width="50" height="1" x="744" y="193.5" rx="0.5" transform="rotate(25, 769, 194)" opacity="0.31"></rect><rect width="56" height="1" x="736" y="752.5" rx="0.5" transform="rotate(25, 764, 753)" opacity="0.42"></rect><rect width="619" height="1" x="-202.5" y="88.5" rx="0.5" transform="rotate(25, 107, 89)" opacity="0.34"></rect><rect width="104" height="1" x="83" y="189.5" rx="0.5" transform="rotate(25, 135, 190)" opacity="0.37"></rect></g></svg>